<svg viewBox="0 0 20 22" fill="none" xmlns="http://www.w3.org/2000/svg">
<path d="M8.75 3.7627C8.40469 3.7627 8.125 4.06884 8.125 4.44682V4.78888H4.0625C3.7175 4.78888 3.4375 5.09536 3.4375 5.473C3.4375 5.85063 3.7175 6.15712 4.0625 6.15712H4.42505L5.21912 16.5893C5.29912 17.6446 6.12051 18.4713 7.08801 18.4713H12.912C13.8795 18.4713 14.7006 17.6446 14.7809 16.5893L15.575 6.15712H15.9375C16.2825 6.15712 16.5625 5.85063 16.5625 5.473C16.5625 5.09536 16.2825 4.78888 15.9375 4.78888H11.875V4.44682C11.875 4.06884 11.5953 3.7627 11.25 3.7627H8.75ZM5.67932 6.15712H14.3213L13.5352 16.4757C13.5083 16.8274 13.2351 17.1031 12.9126 17.1031H7.08801C6.7652 17.1031 6.49141 16.8274 6.46484 16.4757L5.67932 6.15712Z" fill="#EF0404"/>
</svg>
